<?xml version="1.0" standalone="no"?><!DOCTYPE svg PUBLIC "-//W3C//DTD SVG 1.1//EN" "http://www.w3.org/Graphics/SVG/1.1/DTD/svg11.dtd"><svg t="1636284693769" class="icon" viewBox="0 0 1024 1024" version="1.1" xmlns="http://www.w3.org/2000/svg" p-id="1186" xmlns:xlink="http://www.w3.org/1999/xlink" width="200" height="200"><defs><style type="text/css"></style></defs><path d="M228.9 89.5h566.3c38.8 0 58.2 19.4 58.2 58.2v728.6c0 38.8-19.4 58.2-58.2 58.2H228.9c-38.8 0-58.2-19.4-58.2-58.2V147.7c0-38.8 19.4-58.2 58.2-58.2z" fill="#7382EF" p-id="1187"></path><path d="M561.5 264.7H463c-7.1 0-12.8-5.7-12.8-12.8 0-7.1 5.7-12.8 12.8-12.8h98.5c7.1 0 12.8 5.7 12.8 12.8 0 7-5.8 12.8-12.8 12.8zM649.3 327.2H462.9c-7.1 0-12.8-5.7-12.8-12.8 0-7.1 5.7-12.8 12.8-12.8h186.4c7.1 0 12.8 5.7 12.8 12.8 0 7.1-5.7 12.8-12.8 12.8zM338.2 303.1c-28.2 0-51.2-23-51.2-51.2 0-28.2 23-51.2 51.2-51.2 28.2 0 51.2 23 51.2 51.2 0 28.2-23 51.2-51.2 51.2z m0-76.8c-14.1 0-25.6 11.5-25.6 25.6 0 14.1 11.5 25.6 25.6 25.6 14.1 0 25.6-11.5 25.6-25.6 0-14.1-11.5-25.6-25.6-25.6zM561.5 437.9H463c-7.1 0-12.8-5.7-12.8-12.8s5.7-12.8 12.8-12.8h98.5c7.1 0 12.8 5.7 12.8 12.8s-5.8 12.8-12.8 12.8zM649.3 500.5H462.9c-7.1 0-12.8-5.7-12.8-12.8s5.7-12.8 12.8-12.8h186.4c7.1 0 12.8 5.7 12.8 12.8s-5.7 12.8-12.8 12.8zM444.9 665.2H299.8c-7.1 0-12.8-5.7-12.8-12.8 0-7.1 5.7-12.8 12.8-12.8h145.1c7.1 0 12.8 5.7 12.8 12.8 0 7-5.7 12.8-12.8 12.8zM395.1 727.7h-95.4c-7.1 0-12.8-5.7-12.8-12.8 0-7.1 5.7-12.8 12.8-12.8h95.4c7.1 0 12.8 5.7 12.8 12.8 0 7.1-5.7 12.8-12.8 12.8zM338.2 476.3c-28.2 0-51.2-23-51.2-51.2 0-28.2 23-51.2 51.2-51.2 28.2 0 51.2 23 51.2 51.2 0 28.3-23 51.2-51.2 51.2z m0-76.8c-14.1 0-25.6 11.5-25.6 25.6 0 14.1 11.5 25.6 25.6 25.6 14.1 0 25.6-11.5 25.6-25.6 0-14.1-11.5-25.6-25.6-25.6zM624 821.8c-65.8 0-119.3-53.5-119.3-119.3S558.2 583.2 624 583.2s119.3 53.5 119.3 119.3S689.8 821.8 624 821.8z m0-213c-51.7 0-93.7 42-93.7 93.7s42.1 93.7 93.7 93.7 93.7-42 93.7-93.7-42-93.7-93.7-93.7z" fill="#FFFFFF" p-id="1188"></path><path d="M737.6 828.9c-3.3 0-6.5-1.2-9-3.8l-38.3-38.3c-5-5-5-13.1 0-18.1s13.1-5 18.1 0l38.3 38.3c5 5 5 13.1 0 18.1-2.6 2.5-5.8 3.8-9.1 3.8zM637 725.8h-31.1v-3.1c0-5.3 0.6-9.6 1.8-12.9 1.2-3.3 3-6.3 5.4-9 2.4-2.7 7.7-7.5 16-14.4 4.4-3.6 6.6-6.9 6.6-9.9s-0.9-5.3-2.7-7c-1.8-1.7-4.5-2.5-8.1-2.5-3.9 0-7.1 1.3-9.6 3.8-2.5 2.6-4.2 7-4.9 13.4l-31.8-3.9c1.1-11.7 5.3-21.1 12.7-28.2 7.4-7.1 18.7-10.7 34-10.7 11.9 0 21.5 2.5 28.8 7.5 9.9 6.7 14.9 15.7 14.9 26.8 0 4.6-1.3 9.1-3.8 13.4-2.6 4.3-7.8 9.6-15.7 15.8-5.5 4.4-9 7.9-10.4 10.5-1.4 2.7-2.1 6.2-2.1 10.4z m-32.1 8.3h33.3v29.4h-33.3v-29.4z" fill="#FFFFFF" p-id="1189"></path><path d="M965.8 174.8h9.1H896V849.2h78.9-9.1c38.8 0 58.2-19.4 58.2-58.2V233c0-38.8-19.4-58.2-58.2-58.2z" fill="#7382EF" opacity=".3" p-id="1190"></path><path d="M58.2 174.8C19.4 174.8 0 194.2 0 233v558c0 38.8 19.4 58.2 58.2 58.2H128V174.8H58.2z" fill="#7382EF" opacity=".3" p-id="1191"></path></svg>